Coordinates
version=1
nRows=24
nColumns=34
inDegrees=no

Units are S.I. units (second, meters, Newtons, ...)
If the header above contains a line with 'inDegrees', this indicates whether rotational values are in degrees (yes) or radians (no).

endheader
time	pelvis_tilt	pelvis_list	pelvis_rotation	pelvis_tx	pelvis_ty	pelvis_tz	hip_flexion_r	hip_adduction_r	hip_rotation_r	knee_angle_r	ankle_angle_r	subtalar_angle_r	mtp_angle_r	hip_flexion_l	hip_adduction_l	hip_rotation_l	knee_angle_l	ankle_angle_l	subtalar_angle_l	mtp_angle_l	lumbar_extension	lumbar_bending	lumbar_rotation	arm_flex_r	arm_add_r	arm_rot_r	elbow_flex_r	pro_sup_r	arm_flex_l	arm_add_l	arm_rot_l	elbow_flex_l	pro_sup_l
0.94	0.0233913	0.0453618	-0.0554667	0.921494	0.97249	-0.262985	0.413368	-0.100879	-0.134839	0.756435	0.034057	-0.497212	-0.0119948	-0.0151858	0.0570288	-0.122181	0.194192	0.238527	-0.0262683	-0.0113935	-0.249081	-0.271852	-0.0870228	0.0947008	-0.141678	0.205107	0.618856	1.98524	0.101825	-0.22413	-0.0727796	0.563307	1.70941
0.95	0.0219529	0.0404195	-0.0561388	0.932581	0.972452	-0.264685	0.42202	-0.0944272	-0.142883	0.703733	0.0429562	-0.46247	-0.0119977	-0.033082	0.0556666	-0.122977	0.182251	0.241906	-0.0231677	-0.0113808	-0.246958	-0.255725	-0.0871319	0.0905169	-0.143237	0.182517	0.613614	1.98301	0.10838	-0.224129	-0.0497856	0.569522	1.71521
0.96	0.0208698	0.0364514	-0.0570107	0.94371	0.972153	-0.26632	0.428865	-0.0885303	-0.150711	0.649648	0.0532992	-0.421501	-0.0120006	-0.0514039	0.0553996	-0.124024	0.17045	0.245637	-0.0202645	-0.0113681	-0.24518	-0.240639	-0.0871193	0.0865088	-0.144508	0.159583	0.608184	1.98148	0.114705	-0.224688	-0.0271394	0.576869	1.72104
0.97	0.0202931	0.0333941	-0.058068	0.954886	0.971606	-0.267887	0.433777	-0.0830957	-0.15806	0.594517	0.0650956	-0.374374	-0.0120035	-0.0703834	0.0561961	-0.125113	0.158688	0.249736	-0.0177014	-0.0113554	-0.243937	-0.226563	-0.0870051	0.0826763	-0.145554	0.136529	0.602675	1.9808	0.12083	-0.225813	-0.00483534	0.585312	1.72675
0.98	0.0203412	0.0311218	-0.059274	0.966117	0.970824	-0.269383	0.436672	-0.0779745	-0.164593	0.538685	0.0781262	-0.321863	-0.0120063	-0.0901531	0.0579248	-0.126083	0.146977	0.254261	-0.0155495	-0.0113427	-0.243379	-0.21339	-0.0867863	0.0790016	-0.146447	0.113572	0.597223	1.98102	0.126818	-0.227492	0.0171781	0.594729	1.73224
0.99	0.0210913	0.0294548	-0.0605712	0.977406	0.96982	-0.270807	0.43753	-0.0729725	-0.169895	0.482538	0.0919761	-0.265457	-0.0120092	-0.110735	0.0603605	-0.126867	0.135451	0.259317	-0.0137619	-0.01133	-0.243601	-0.200953	-0.0864393	0.0754497	-0.14726	0.0909099	0.591982	1.98201	0.132755	-0.229691	0.0389869	0.604925	1.73744
1	0.0225754	0.0281797	-0.0618886	0.988758	0.968609	-0.272156	0.436406	-0.0678771	-0.173491	0.426531	0.106099	-0.207263	-0.0120121	-0.132045	0.0632085	-0.127515	0.124347	0.26505	-0.0121481	-0.0113173	-0.24465	-0.189043	-0.0859267	0.071973	-0.148056	0.0687108	0.587115	1.9835	0.138744	-0.232361	0.0606881	0.615641	1.7423
1.01	0.0247826	0.0270778	-0.0631503	1.00018	0.96721	-0.273427	0.433448	-0.0624948	-0.174902	0.371234	0.119907	-0.149797	-0.012015	-0.153914	0.0661435	-0.128201	0.113976	0.271618	-0.0103769	-0.0113047	-0.246524	-0.177446	-0.0852065	0.0685188	-0.148884	0.047111	0.582772	1.98515	0.144889	-0.235431	0.0823569	0.62659	1.74676
1.02	0.0276669	0.0259551	-0.0642861	1.01166	0.96564	-0.274616	0.428897	-0.0566931	-0.173722	0.317365	0.132871	-0.0956862	-0.0120179	-0.176119	0.0688537	-0.129207	0.104679	0.279159	-0.00801158	-0.011292	-0.249184	-0.165966	-0.0842425	0.0650385	-0.149774	0.0262117	0.579076	1.98654	0.151273	-0.238813	0.10401	0.63749	1.7508
1.03	0.0311544	0.0246647	-0.0652422	1.02321	0.963922	-0.275719	0.423085	-0.0504327	-0.169729	0.265803	0.14462	-0.0473384	-0.0120208	-0.19841	0.0710807	-0.130873	0.09678	0.287746	-0.00457253	-0.0112793	-0.252563	-0.154456	-0.0830129	0.0614959	-0.150739	0.00608325	0.576113	1.98731	0.157943	-0.242395	0.125567	0.648099	1.75437
1.04	0.0351542	0.0231132	-0.0659874	1.03483	0.96208	-0.276732	0.416431	-0.0437822	-0.162973	0.217594	0.155009	-0.00661732	-0.0120236	-0.22054	0.0726462	-0.133543	0.0905552	0.29736	0.000383469	-0.0112667	-0.256575	-0.142836	-0.0815154	0.0578727	-0.151776	-0.0132277	0.573918	1.98717	0.164887	-0.246049	0.146829	0.658241	1.75745
1.05	0.0395691	0.0212592	-0.0665176	1.04652	0.960133	-0.277652	0.409424	-0.0369074	-0.153853	0.173903	0.164157	0.0254237	-0.0120265	-0.242281	0.0734571	-0.137503	0.0862041	0.307865	0.00718035	-0.011254	-0.261108	-0.131081	-0.0797683	0.0541682	-0.152873	-0.0316926	0.572475	1.98591	0.17203	-0.249629	0.167472	0.667813	1.76006
1.06	0.0442904	0.019115	-0.0668551	1.05828	0.958107	-0.278478	0.40258	-0.0300332	-0.143146	0.135942	0.172432	0.0486943	-0.0120294	-0.263436	0.0734888	-0.142924	0.0838445	0.31901	0.0159517	-0.0112413	-0.266033	-0.1192	-0.0778042	0.0503961	-0.154014	-0.0492978	0.571719	1.9835	0.179225	-0.252976	0.187064	0.676779	1.76229
1.07	0.0491949	0.0167147	-0.0670412	1.07013	0.956024	-0.279212	0.396402	-0.0233915	-0.131942	0.104847	0.180372	0.0640542	-0.0120323	-0.283841	0.0727578	-0.149826	0.0835182	0.330444	0.0265966	-0.0112287	-0.271201	-0.107211	-0.0756624	0.0465762	-0.155182	-0.0660438	0.571547	1.97999	0.186265	-0.255925	0.205105	0.685145	1.76429
1.08	0.0541498	0.0140779	-0.0671262	1.08209	0.953904	-0.279856	0.391314	-0.0171617	-0.121513	0.0815297	0.188546	0.0731128	-0.0120352	-0.303366	0.0712884	-0.158073	0.085205	0.341753	0.0387718	-0.011216	-0.276434	-0.0951055	-0.0733823	0.0427254	-0.156366	-0.0819462	0.571828	1.97552	0.192894	-0.258317	0.221077	0.692942	1.76629
1.09	0.0590166	0.0111801	-0.0671591	1.09416	0.951764	-0.280411	0.387601	-0.0114167	-0.113088	0.0665281	0.197369	0.0778637	-0.0120381	-0.321907	0.0690795	-0.167387	0.0888401	0.352492	0.0519217	-0.0112034	-0.281534	-0.08283	-0.0709994	0.0388491	-0.157557	-0.0970372	0.572416	1.97035	0.198827	-0.260003	0.2345	0.7002	1.76853
1.1	0.063658	0.00793567	-0.067177	1.10638	0.949622	-0.280879	0.385362	-0.00608735	-0.10761	0.0598791	0.206908	0.0802314	-0.012041	-0.339387	0.0660824	-0.177387	0.0943303	0.362228	0.0653392	-0.0111907	-0.286279	-0.0702671	-0.0685439	0.0349354	-0.158754	-0.111365	0.573162	1.96474	0.203769	-0.260857	0.244991	0.706934	1.77127
1.11	0.0679465	0.00419615	-0.0671974	1.11879	0.947495	-0.281259	0.384477	-0.00095331	-0.105524	0.061061	0.216743	0.0816489	-0.0120438	-0.355753	0.0621921	-0.187639	0.101569	0.370561	0.078239	-0.0111781	-0.290442	-0.0572366	-0.0660416	0.0309547	-0.159959	-0.124989	0.573924	1.959	0.207442	-0.260788	0.2523	0.713136	1.77469
1.12	0.0717705	-0.000235832	-0.067216	1.13143	0.945396	-0.281548	0.384632	0.00433549	-0.106673	0.0690273	0.225919	0.0827873	-0.0120467	-0.370973	0.0572546	-0.197701	0.11045	0.37713	0.0898258	-0.0111655	-0.293803	-0.0435106	-0.0635163	0.0268653	-0.161176	-0.137974	0.574565	1.95344	0.209609	-0.259742	0.256341	0.718772	1.77888
1.13	0.0750384	-0.00558151	-0.0672105	1.14433	0.943337	-0.281739	0.385379	0.0102115	-0.110339	0.0823357	0.233036	0.0835045	-0.0120496	-0.385024	0.0510859	-0.207171	0.120892	0.381608	0.0993588	-0.0111528	-0.296165	-0.0288414	-0.0609902	0.0226218	-0.162411	-0.150383	0.574955	1.94833	0.210088	-0.257705	0.257206	0.723784	1.78383
1.14	0.0776931	-0.0120619	-0.0671482	1.15752	0.941359	-0.281818	0.386236	0.0171209	-0.115419	0.0993588	0.236485	0.0830266	-0.0120525	-0.397864	0.0434992	-0.215734	0.132867	0.383686	0.106209	-0.0111402	-0.297366	-0.0130004	-0.0584832	0.0181863	-0.163669	-0.162264	0.574972	1.94387	0.208773	-0.254706	0.255149	0.728095	1.78936
1.15	0.0796854	-0.0198458	-0.0669999	1.17103	0.93949	-0.281778	0.386793	0.0254472	-0.12071	0.118543	0.23478	0.0803058	-0.0120554	-0.409401	0.0343296	-0.223194	0.146454	0.383054	0.109903	-0.0111276	-0.297291	0.00418944	-0.0560127	0.0135391	-0.164957	-0.173653	0.5745	1.94021	0.205638	-0.250808	0.250564	0.731624	1.79524
1.16	0.0809752	-0.0290234	-0.0667511	1.18487	0.937755	-0.281613	0.386819	0.035435	-0.125192	0.138649	0.226927	0.0744142	-0.0120583	-0.419455	0.0234619	-0.22949	0.161876	0.379376	0.110129	-0.011115	-0.29587	0.0228139	-0.053596	0.00868752	-0.16628	-0.18456	0.573432	1.93737	0.200732	-0.246097	0.243929	0.734295	1.80114
1.17	0.0815264	-0.0395812	-0.0664104	1.19901	0.936171	-0.281321	0.386314	0.0471361	-0.128229	0.158919	0.212721	0.0648375	-0.0120612	-0.427725	0.0108544	-0.234665	0.179526	0.372248	0.106706	-0.0111023	-0.293074	0.0428389	-0.0512548	0.00367155	-0.167642	-0.194976	0.571674	1.93529	0.194162	-0.240681	0.235747	0.736056	1.80673
